<?xml version="1.0" encoding="utf-8"?>
<!-- Generator: Adobe Illustrator 23.0.6, SVG Export Plug-In . SVG Version: 6.00 Build 0)  -->
<svg version="1.1" id="Layer_1" xmlns="http://www.w3.org/2000/svg" xmlns:xlink="http://www.w3.org/1999/xlink" x="0px" y="0px"
	 viewBox="0 0 240.9 155.9" style="enable-background:new 0 0 240.9 155.9;" xml:space="preserve">
<style type="text/css">
	.st0{fill:#CFCFCE;}
	.st1{font-family:'Roboto-Thin';}
	.st2{font-size:21px;}
	.st3{font-size:9px;}
	.st4{fill:#444444;}
	.st5{fill:#FFFFFF;}
	.st6{fill:#FFB41F;}
	.st7{font-family:'Roboto-Light';}
</style>
<rect x="-9" y="118.1" class="st0" width="261.5" height="48.8"/>
<text transform="matrix(1 0 0 1 17.2677 51.5024)" class="st1 st2">#name</text>
<text transform="matrix(1 0 0 1 18.685 65.1028)" class="st1 st3">#company</text>
<path class="st4" d="M234.7,107.7c0.1-0.7,0.2-1.4,0.2-2.1c0.2-7.9-5.9-14.7-13.8-15.3c-8.7-0.6-15.9,6.3-15.9,14.8
	c0,0.9,0.1,1.7,0.2,2.5h-3.2l-2.2-25c0-0.3-0.2-0.5-0.5-0.5s-0.5-0.2-0.5-0.5l-2.2-21.4c0-0.3-0.5-0.3-0.6,0L194,81.6
	c0,0.3-0.2,0.5-0.5,0.5s-0.5,0.2-0.5,0.5l-1.9,20.6c0,0.2-0.2,0.1-0.3,0l-3.7-6.3H179l-0.6-2.3c-0.1-0.2-0.4-0.2-0.4,0l-0.6,2.3H174
	l-3.7,6.3c-0.1,0.2-0.4,0.2-0.4,0l-1.9-8.6c-0.1-0.3-0.5-0.3-0.6,0l-2,9.5v3.5H-9c0,0,0,11.9,0,12.3h261.5v-12.3L234.7,107.7
	L234.7,107.7z M220.1,117.2c-0.8,0-1.6-0.1-2.3-0.2l0.4-0.9l1.8-4l1.8,4l0.4,0.9C221.6,117.1,220.8,117.2,220.1,117.2z M224.4,114.9
	l-4.4-9.6l-4.4,9.6c-3.7-1.7-6.3-5.4-6.3-9.7c0-6.3,5.4-11.3,11.9-10.6c4.9,0.6,8.9,4.5,9.4,9.5
	C231.1,108.8,228.4,113.1,224.4,114.9z"/>
<g>
	<path class="st5" d="M172.1,112.5c0-1-0.6-1.7-1.9-1.7c-1.4,0-2.2,0.7-2.7,2.5c0,0.1-0.2,0-0.2,0l0.8-3c0-0.1,0.3,0,0.2,0
		c-0.1,0.5,0.1,0.6,0.3,0.6c0.4,0,1.3-0.5,2.2-0.5c1.8,0,2.6,1.2,2.6,2.3c0,1.4-1.2,3.2-4.6,6.9c-0.1,0.1,0,0.1,0.1,0.1
		c4.1,0,4.3-0.1,5.1-2c0-0.1,0.2-0.1,0.2,0l0,2.1c0,0.1-0.1,0.2-0.2,0.2h-6.8c-0.1,0-0.2-0.1-0.1-0.2
		C171,115.5,172.1,113.9,172.1,112.5z"/>
	<path class="st5" d="M174.9,115.2c0-2.9,2-4.8,4.8-4.8c2.8,0,4.7,2,4.7,4.9s-1.9,4.9-4.7,4.9C176.9,120.2,174.9,118.2,174.9,115.2z
		 M182.9,115.5c0-3.4-1.6-4.9-3.4-4.9c-2,0-3.2,1.8-3.2,4.4c0,2.8,1.4,4.8,3.6,4.8C182,119.9,182.9,118.2,182.9,115.5z"/>
	<path class="st5" d="M190.1,112.5c0-1-0.6-1.7-1.9-1.7c-1.4,0-2.2,0.7-2.7,2.5c0,0.1-0.2,0-0.2,0l0.8-3c0-0.1,0.3,0,0.2,0
		c-0.1,0.5,0.1,0.6,0.3,0.6c0.4,0,1.3-0.5,2.2-0.5c1.8,0,2.6,1.2,2.6,2.3c0,1.4-1.2,3.2-4.6,6.9c-0.1,0.1,0,0.1,0.1,0.1
		c4.1,0,4.3-0.1,5.1-2c0-0.1,0.2-0.1,0.2,0l0,2.1c0,0.1-0.1,0.2-0.2,0.2h-6.8c-0.1,0-0.2-0.1-0.1-0.2
		C188.9,115.5,190.1,113.9,190.1,112.5z"/>
	<path class="st5" d="M192.9,115.2c0-2.9,2-4.8,4.8-4.8c2.8,0,4.7,2,4.7,4.9s-1.9,4.9-4.7,4.9C194.9,120.2,192.9,118.2,192.9,115.2z
		 M200.9,115.5c0-3.4-1.6-4.9-3.4-4.9c-2,0-3.2,1.8-3.2,4.4c0,2.8,1.4,4.8,3.6,4.8C200,119.9,200.9,118.2,200.9,115.5z"/>
</g>
<g>
	<path class="st6" d="M56.9,103.6c0.1,0,0.1,0.4,0,0.4c-1.2,0-2.6-0.1-4.4-0.1c-1.6,0-3.2,0.1-4.4,0.1c-0.1,0-0.1-0.4,0-0.4
		c2.7,0,3.2-0.4,3.2-2.6V83.9c0-2.1-0.5-2.6-3.2-2.6c-0.1,0-0.1-0.4,0-0.4c1.2,0,2.7,0.1,4.4,0.1c1.8,0,3.3-0.1,4.4-0.1
		c0.1,0,0.1,0.4,0,0.4c-2.7,0-3.1,0.5-3.1,2.6V101C53.7,103.2,54.1,103.6,56.9,103.6z"/>
	<path class="st6" d="M75.5,87.2c-1.9,0-2.6,1-2.6,3.6v13.7c0,0.1-0.3,0.1-0.4,0.1L60.3,89.8c-0.1-0.2-0.3-0.4-0.4-0.5V100
		c0,2.6,0.7,3.6,2.5,3.6c0.1,0,0.1,0.4,0,0.4c-0.9,0-1.7-0.1-2.8-0.1c-1,0-2.1,0.1-2.9,0.1c-0.1,0-0.1-0.4,0-0.4
		c1.9,0,2.5-1,2.5-3.6V88.5c-1-0.9-1.7-1.3-2.5-1.3c-0.1,0-0.1-0.4,0-0.4c0.7,0,1.5,0,2.1,0c0.7,0,1.1,0,2,0c0.6,0,0.7,0.6,1.7,1.9
		l9.8,12.1v-10c0-2.6-0.6-3.6-2.4-3.6c-0.1,0-0.1-0.4,0-0.4c0.9,0,1.7,0.1,2.8,0.1c1,0,2.1-0.1,2.9-0.1
		C75.6,86.7,75.6,87.2,75.5,87.2z"/>
	<path class="st6" d="M88,91.1c0,0.1-0.4,0.1-0.4,0c-0.3-2.4-1.7-3.9-3.9-3.9h-1.1c-2.5,0-2.9,0.4-2.9,2.6v5.5c2.1,0,4.1,0,6.4-0.3
		c0.3,0,0.3,1.7-0.1,1.6c-2.2-0.4-4.2-0.5-6.3-0.5v4.8c0,2.2,0.5,2.7,3.7,2.7c0.1,0,0.1,0.4,0,0.4c-1.4,0-3-0.1-4.8-0.1
		c-1.3,0-2.6,0.1-3.8,0.1c-0.1,0-0.1-0.4,0-0.4c2.3,0,2.8-0.4,2.8-2.6V89.7c0-2.1-0.4-2.6-2.8-2.6c-0.1,0-0.1-0.4,0-0.4h12.9
		c0.3,0,0.3,0.1,0.3,0.3C88,88.2,88,90.2,88,91.1z"/>
	<path class="st6" d="M87.4,95.5c0-6.1,5.4-9.2,10-9.2c5.4,0,8.7,4.5,8.7,8.8c0,5.1-4.4,9.4-9.8,9.4
		C90.9,104.5,87.4,100.3,87.4,95.5z M103.5,96c-0.1-4.7-2.8-8.8-7.7-8.8c-3.8,0-6,2.6-5.8,7.1c0.1,5.2,3,9.5,7.4,9.5
		C100.9,103.7,103.6,100.9,103.5,96z"/>
	<path class="st6" d="M115.5,104c-1.6,0-3.2,0.1-4.4,0.1c-0.1,0-0.1-0.4,0-0.4c2.7,0,3.2-0.4,3.2-2.6V83.9c0-2.1-0.5-2.6-3.2-2.6
		c-0.1,0-0.1-0.4,0-0.4c1.2,0,2.7,0.1,4.3,0.1c1.6,0,3.7-0.2,5-0.2c7.9,0,13.1,4.9,13.1,11.2c0,7.4-5.7,12.1-12.5,12.1
		C119.6,104.2,117.2,104,115.5,104z M130.8,92.9c0-6.4-3.8-11.5-9.9-11.5c-3,0-4.1,0.3-4.1,2.6v16.7c0,2,0.7,3,4,3
		C126.5,103.6,130.8,99.9,130.8,92.9z"/>
	<path class="st6" d="M152,104c-1.4,0-2.9-0.1-4.3-0.1c-1.1,0-2,0.1-3,0.1c-0.2,0-0.2-0.4,0-0.4c1.8,0,2.4-0.6,1.4-2.7l-2.5-5.4
		h-5.2l-1.6,4c-1.3,3.1-0.4,4.1,2.1,4.1c0.2,0,0.2,0.4,0,0.4c-1.2,0-1.9-0.1-3.4-0.1c-1.7,0-2.5,0.1-4,0.1c-0.2,0-0.2-0.4,0-0.4
		c2.2,0,2.8-0.6,4.4-4.4l5.3-13c0.1-0.2,0.3-0.2,0.4,0l5.9,12.8c1.8,3.9,2.4,4.6,4.3,4.6C152.2,103.6,152.2,104,152,104z
		 M143.3,94.9l-2.4-5.3l-2.1,5.3H143.3z"/>
	<path class="st6" d="M165.1,87.2c-1.6,0-3.2,1.2-4.4,3.3l-3,5v5.5c0,2.1,0.4,2.6,3.2,2.6c0.1,0,0.1,0.4,0,0.4
		c-1.2,0-2.6-0.1-4.3-0.1c-1.6,0-3.1,0.1-4.3,0.1c-0.1,0-0.1-0.4,0-0.4c2.7,0,3.2-0.4,3.2-2.6v-4.9l-4.1-6.3
		c-1.3-1.9-2.1-2.6-3.7-2.6c-0.1,0-0.1-0.4,0-0.4c0.7,0,1.7,0.1,2.4,0.1c1.8,0,3.5-0.1,4.7-0.1c0.1,0,0.1,0.4,0,0.4
		c-1.5,0-2,0.5-1.3,1.6l4,6.1l2.6-4.4c1.1-2,0.6-3.3-0.9-3.3c-0.1,0-0.1-0.4,0-0.4c1.2,0,2,0.1,3.8,0.1c1,0,1.4-0.1,2.3-0.1
		C165.2,86.7,165.2,87.2,165.1,87.2z"/>
</g>
<text transform="matrix(1 0 0 1 110.2919 144.0271)" class="st7 st3">#role</text>
</svg>
